<svg xmlns="http://www.w3.org/2000/svg" viewBox="0 0 64 64" role="img" aria-label="SendFx icon">
  <defs>
    <linearGradient id="brand" x1="8%" y1="8%" x2="92%" y2="92%">
      <stop offset="0%" stop-color="#0ea5e9" />
      <stop offset="100%" stop-color="#6366f1" />
    </linearGradient>
    <linearGradient id="accent" x1="20%" y1="10%" x2="80%" y2="90%">
      <stop offset="0%" stop-color="#ffffff" stop-opacity="0.6" />
      <stop offset="100%" stop-color="#ffffff" stop-opacity="0.1" />
    </linearGradient>
    <filter id="shadow" x="-12%" y="-12%" width="124%" height="124%">
      <feDropShadow dx="0" dy="6" stdDeviation="6" flood-color="#0ea5e9" flood-opacity="0.35" />
    </filter>
  </defs>
  <g filter="url(#shadow)">
    <rect x="2" y="2" width="60" height="60" rx="15" fill="url(#brand)" />
    <rect x="4.5" y="4.5" width="55" height="55" rx="14" fill="url(#accent)" />
  </g>
  <path
    d="M13 33 50.5 16.5a1.4 1.4 0 0 1 1.9 1.6l-5.7 22.8a2 2 0 0 1-2.9 1.2l-11.4-6.4a1.3 1.3 0 0 0-1.2 0l-7.1 4c-1 .56-2.2-.4-1.9-1.5l3.1-11.9a1.6 1.6 0 0 1 .9-1L41 19l-12.7 15 5 2.9"
    fill="none"
    stroke="#f8fbff"
    stroke-width="2.5"
    stroke-linecap="round"
    stroke-linejoin="round"
  />
  <path
    d="M21.5 26.5c0-2.5 2.1-4.5 4.8-4.5h15.9c4.2 0 7.6 3.2 7.6 7.2v6.2c0 3.6-3 6.6-6.8 6.6H31l-6.8 4.5c-1.1.75-2.6-.05-2.6-1.3Z"
    fill="rgba(255,255,255,0.12)"
    stroke="rgba(255,255,255,0.4)"
    stroke-width="1.2"
    stroke-linejoin="round"
  />
  <circle cx="44.5" cy="19.5" r="2.2" fill="#99f6e4" opacity="0.9" />
</svg>
