<svg xmlns="http://www.w3.org/2000/svg" viewBox="0 0 512 512" role="img" aria-label="SendFx icon">
  <defs>
    <linearGradient id="bg" x1="0%" y1="0%" x2="100%" y2="100%">
      <stop offset="0%" stop-color="#0ea5e9"/>
      <stop offset="100%" stop-color="#6366f1"/>
    </linearGradient>
    <linearGradient id="shine" x1="0%" y1="0%" x2="100%" y2="100%">
      <stop offset="0%" stop-color="#ffffff" stop-opacity="0.85"/>
      <stop offset="100%" stop-color="#ffffff" stop-opacity="0.6"/>
    </linearGradient>
    <filter id="shadow" x="-20%" y="-20%" width="140%" height="140%">
      <feDropShadow dx="0" dy="8" stdDeviation="12" flood-color="#0ea5e9" flood-opacity="0.35"/>
    </filter>
  </defs>
  <rect width="512" height="512" rx="120" fill="url(#bg)"/>
  <path d="M120 252 L390 130 a6 6 0 0 1 8.6 6.8l-44 180a10 10 0 0 1-14.7 6.5l-90.2-50.6a6 6 0 0 0-5.8 0.02l-57 31.3c-7.4 4-15.9-3-13.7-11l25.8-94.6a8 8 0 0 1 4.3-5.1l146.2-64.8L188 280l40.7 23.4" fill="none" stroke="url(#shine)" stroke-width="28" stroke-linecap="round" stroke-linejoin="round" filter="url(#shadow)"/>
  <circle cx="360" cy="160" r="12" fill="#a5f3fc" opacity="0.8"/>
</svg>
